<?xml version="1.0" encoding="UTF-8"?>
<!-- Created with Inkscape (http://www.inkscape.org/) -->
<svg width="643.57" height="238.59" version="1.1" viewBox="0 0 643.57 238.59" xmlns="http://www.w3.org/2000/svg" xmlns:cc="http://creativecommons.org/ns#" xmlns:dc="http://purl.org/dc/elements/1.1/" xmlns:rdf="http://www.w3.org/1999/02/22-rdf-syntax-ns#">
 <metadata>
  <rdf:RDF>
   <cc:Work rdf:about="">
    <dc:format>image/svg+xml</dc:format>
    <dc:type rdf:resource="http://purl.org/dc/dcmitype/StillImage"/>
    <dc:title/>
   </cc:Work>
  </rdf:RDF>
 </metadata>
 <g transform="translate(-.0019571 -.00218)" fill="#fff">
  <path d="m0.17129 135.92c0.50003-1.303 10.535-29.625 22.302-62.937 15.033-42.563 22.618-61.883 25.516-64.991 10.915-11.705 30.499-9.0518 37.473 5.076 1.584 3.209 11.213 29.555 21.397 58.547l18.518 52.713 0.85785-99.749h29.224c32.708 0 38.545 1.2989 42.798 9.5233 4.7503 9.1863 2.4543 23.417-4.7416 29.389-1.4467 1.2007-5.8266 2.9946-9.7332 3.9866l-7.1029 1.8034 18.688 32.388c10.278 17.814 19.067 33.302 19.531 34.416 0.61901 1.4879-1.6985 2.0274-8.7093 2.0274h-9.5527l-27.467-47.815-0.44883 23.907-0.44885 23.907h-17.755v-89.206h16.338c14.687 0 16.283-0.28684 15.792-2.8384-0.48275-2.5067-2.7232-2.8384-19.176-2.8384h-18.63l-0.42997 47.442-0.42998 47.442h-94.023v-16.219h28.384c15.611 0 28.384-0.54546 28.384-1.2121s-7.8461-23.028-17.436-49.694c-18.237-50.711-20.646-55.201-27.604-51.477-2.2081 1.1818-8.8867 18.179-23.468 59.721l-20.381 58.07-9.2872 0.4926c-7.6054 0.4034-9.1226 0.0636-8.3781-1.8766zm23.834 1.0443c0-0.63286 8.5247-25.886 18.944-56.119 16.768-48.653 21.176-58.855 24.151-55.882 0.43151 0.43151 7.9824 21.14 16.779 46.021l15.995 45.236-24.431 0.44924c-17.653 0.32463-24.764-0.0901-25.633-1.4945-1.2621-2.042-4.7007 4.9193-8.2013 16.604-1.8683 6.2357-2.0263 6.3384-9.752 6.3384-4.319 0-7.8529-0.51779-7.8529-1.1506zm51.902-38.244c0-4.4908-11.038-34.262-11.854-31.972-0.47685 1.3381-2.8561 8.6368-5.2872 16.219-2.4311 7.5825-4.7562 14.699-5.1668 15.814-0.55306 1.5018 2.2418 2.0274 10.78 2.0274 8.3231 0 11.527-0.58078 11.527-2.0895zm129.21 7.3608c-18.406-31.611-18.6-32.054-14.877-33.676 9.3102-4.0538 16.939-16.001 17.008-26.634 0.0504-7.898-5.752-18.873-12.03-22.752-4.9052-3.0316-7.982-3.305-37.189-3.305h-31.842v-19.463h29.712c35.439 0 43.132 1.6771 54.109 11.795 11.548 10.644 14.282 17.235 14.289 34.43 6e-3 15.661-1.9843 21.625-10.118 30.322l-4.0884 4.3719 15.627 27.612c8.5949 15.187 15.627 27.999 15.627 28.473s-3.9546 0.85971-8.7881 0.85971h-8.7881zm60.545 30.533c-13.469-4.1466-24.444-14.971-28.282-27.892-3.5892-12.086-3.5892-66.994 0-79.079 2.9326-9.875 11.312-19.927 20.882-25.049 5.9994-3.2113 9.4327-3.5799 37.82-4.0613l31.222-0.5295v17.885l-29.081 0.50787c-31.78 0.555-33.413 1.0159-41.372 11.675-3.1332 4.1966-3.3441 6.6626-3.3441 39.113 0 32.45 0.21084 34.915 3.3441 39.113 7.9544 10.654 9.6022 11.12 41.277 11.674l28.987 0.5068 0.50068 5.1699c0.37078 3.8286 5.9155-10.191 21.369-54.03 14.703-41.711 22.089-60.508 25.002-63.624 10.937-11.703 30.509-9.0527 37.483 5.076 1.584 3.209 11.213 29.555 21.397 58.547l18.518 52.713 0.86968-77.042h17.783v73.292l23.113-0.5774c35.483-0.88643 34.466 0.64255 34.466-51.847v-38.647l-10.598-10.603-64.822-1.0544v-17.598h29.926c36.751 0 44.49 1.429 52.813 9.7528 9.0772 9.0772 10.084 15.905 9.4408 64.045-0.53157 39.81-0.61568 40.681-4.6167 47.826-2.6822 4.7904-6.5632 8.6713-11.354 11.354l-7.2783 4.0753-145.16 0.96617v-16.375h28.384c15.611 0 28.384-0.54546 28.384-1.2121s-7.8461-23.028-17.436-49.694c-18.237-50.711-20.646-55.201-27.604-51.477-2.2079 1.1816-8.8903 18.183-23.473 59.721l-20.386 58.07-37.053 0.28102c-20.38 0.15456-38.881-0.28218-41.118-0.97055zm84.35 0.34986c0-0.63286 8.5247-25.886 18.944-56.119 16.768-48.653 21.176-58.855 24.151-55.882 0.4315 0.43151 7.9823 21.14 16.781 46.021l15.995 45.236-24.431 0.44924c-17.653 0.32463-24.764-0.0901-25.633-1.4945-1.2621-2.042-4.7007 4.9193-8.2013 16.604-1.8683 6.2357-2.0263 6.3384-9.752 6.3384-4.319 0-7.8529-0.51779-7.8529-1.1506zm51.902-38.244c0-4.4908-11.038-34.262-11.854-31.972-0.47687 1.3381-2.8561 8.6368-5.2872 16.219-2.4311 7.5825-4.7562 14.699-5.1668 15.814-0.55306 1.5018 2.2418 2.0274 10.78 2.0274 8.3231 0 11.527-0.58078 11.527-2.0895zm180.02 37.879c-13.417-4.0811-24.443-14.95-28.282-27.878-3.5892-12.086-3.5892-66.994 0-79.079 2.9326-9.875 11.312-19.927 20.882-25.049 5.9994-3.2113 9.4327-3.5799 37.82-4.0613l31.222-0.52948v17.885l-29.081 0.50786c-31.78 0.555-33.413 1.0159-41.372 11.675-3.1332 4.1966-3.3441 6.6626-3.3441 39.113 0 32.45 0.21084 34.915 3.3441 39.113 7.9582 10.659 9.5915 11.12 41.372 11.675l29.081 0.50785v17.637l-28.789-0.1394c-15.834-0.0768-30.619-0.69589-32.854-1.376zm-314.29-25.345c-7.5443-5.2842-8.4613-9.8437-8.4613-42.071 0-44.994-0.3509-44.603 40.099-44.603h28.022v17.757l-49.469 0.89544v51.902l49.469 0.89545v17.757h-28.022c-22.769 0-28.7-0.47463-31.637-2.5314zm207.25-30.718v-33.25h19.377l0.44886 23.924 0.44883 23.924h9.7316v-51.902l-52.713-0.89132v-17.76h30.89c30.635 0 30.924 0.0329 34.872 3.981l3.9812 3.981v37.377c0 46.953 1.8839 43.865-26.762 43.865h-20.274zm109.02 30.718c-6.3507-4.4482-8.4613-10.877-8.4613-25.773v-13.867h56.768v17.841h-20.393c-18.548 0-20.344 0.25677-19.848 2.8384 0.48705 2.5367 3.2572 2.8859 26.069 3.2851l25.524 0.44667v17.759h-28.022c-22.769 0-28.7-0.47463-31.637-2.5314zm-8.4616-58.372c0-14.895 2.1106-21.324 8.4613-25.773 2.9363-2.0568 8.8682-2.5314 31.637-2.5314h28.022v17.759l-25.524 0.44667c-22.812 0.3992-25.583 0.74826-26.069 3.2851-0.49566 2.5816 1.2998 2.8384 19.848 2.8384h20.393v17.841h-56.768z" stroke-width="1.6219"/>
  <path d="m162.05 237.47c-8.3007-2.5521-15.071-9.2289-17.437-17.196-2.2129-7.4515-2.2129-41.305 0-48.756 1.8081-6.0884 6.9746-12.286 12.875-15.444 3.767-2.0163 5.7157-2.2012 26.318-2.4963l22.25-0.31874v11.025l-20.93 0.30613c-22.948 0.33564-23.493 0.47316-28.508 7.1912-1.9318 2.5874-2.0618 4.1078-2.0618 24.115s0.12999 21.527 2.0618 24.115c4.8909 6.5508 6.0445 6.8851 23.759 6.8851h16.18l0.54954-32.5h-26.05v-11h34.967l0.26634 26.636 0.26633 26.636 13.369-37.886c9.4263-26.712 14.12-38.691 15.915-40.613 4.8682-5.2152 13.326-5.967 19.297-1.7155 3.2594 2.3209 4.2085 4.5889 16.413 39.218 5.3839 15.276 9.9443 27.62 10.134 27.43 0.1899-0.18989 5.0655-13.703 10.835-30.028s11.152-30.965 11.962-32.532c2.2405-4.3327 6.3219-6.5288 12.249-6.591 6.3786-0.067 9.8122 2.191 13.326 8.7636 1.375 2.5719 2.725 4.6771 3 4.6781s1.7325-2.1927 3.239-4.8749c1.5064-2.6822 3.9053-5.6409 5.3308-6.575 5.6393-3.695 13.913-2.8546 18.346 1.8636 1.3692 1.4575 7.4518 17.132 15.996 41.221l13.786 38.869-4.9915 0.30721c-2.7453 0.16897-5.3345-0.056-5.7536-0.5-0.41919-0.44397-6.2601-16.557-12.98-35.807s-12.924-35.562-13.786-36.25c-4.2572-3.3929-5.8415-1.2509-12.709 17.183-3.1897 8.5617-6.0644 15.564-6.3882 15.56-0.32383-4e-3 -3.252-7.2283-6.507-16.055-3.8773-10.514-6.5731-16.399-7.8171-17.065-4.4181-2.3645-5.6839 0.16509-18.759 37.488l-12.484 35.638h-50.522v-10h17.5c9.625 0 17.5-0.3363 17.5-0.74733s-4.8375-14.198-10.75-30.639c-11.244-31.266-12.729-34.034-17.019-31.738-1.3613 0.72853-5.4814 11.211-14.473 36.821l-12.57 35.803-26.344 0.17225c-14.489 0.0947-27.472-0.17454-28.851-0.59839zm59.006 0.21672c0-0.39018 5.2559-15.96 11.68-34.6 10.338-29.997 13.056-36.287 14.89-34.454 0.26605 0.26604 4.9215 13.034 10.346 28.374l9.8618 27.89-15.063 0.27698c-10.884 0.20015-15.268-0.0555-15.804-0.92142-0.77814-1.259-2.8982 3.033-5.0565 10.237-1.1519 3.8446-1.2493 3.9079-6.0126 3.9079-2.6629 0-4.8417-0.31924-4.8417-0.70942zm32-23.579c0-2.7688-6.8052-21.124-7.3083-19.712-0.29401 0.825-1.7609 5.325-3.2598 10s-2.9324 9.0625-3.1856 9.75c-0.34099 0.92593 1.3822 1.25 6.6466 1.25 5.1316 0 7.107-0.35808 7.107-1.2883zm48.133-4.9127c5.5399-16.114 10.976-31.91 12.079-35.101 1.4579-4.2157 2.4491-5.717 3.6249-5.4906 1.1058 0.21295 3.8424 6.3866 8.6406 19.492 3.8622 10.549 7.2559 19.404 7.5416 19.677 0.28564 0.27268 3.7238-8.3629 7.6403-19.19 5.5648-15.384 7.504-19.686 8.8735-19.686 1.4041 0 3.9819 6.4618 12.965 32.5 6.1671 17.875 11.533 33.512 11.925 34.75 0.67736 2.1418 0.45407 2.25-4.6432 2.25h-5.3547l-3.3422-10.25c-6.5896-20.209-11.354-32.878-12.061-32.071-0.39572 0.45145-4.0125 9.7083-8.0374 20.571-4.0248 10.862-7.5804 19.745-7.9013 19.739-0.32089-6e-3 -3.6913-8.4438-7.4898-18.75s-7.3613-19.637-7.9174-20.736c-0.83054-1.6405-2.29 1.8417-8.1728 19.5l-7.1617 21.497-11.281 0.598zm102.86 28.267c-8.272-2.5162-15.07-9.2171-17.437-17.188-1.1718-3.9458-1.5564-9.9706-1.5564-24.378 0-22.178 1.0286-27.312 6.7382-33.632 6.9435-7.6856 9.2239-8.325 31.012-8.6945l19.25-0.32646v11.027l-17.93 0.31312c-19.594 0.34219-20.601 0.62633-25.508 7.1982-1.9318 2.5874-2.0618 4.1078-2.0618 24.115s0.12999 21.527 2.0618 24.115c4.9066 6.5719 5.9136 6.8561 25.508 7.1982l21.929 0.35194-6e-4 11.026-21.749-0.27698c-9.7625-0.0473-18.878-0.42905-20.256-0.84839zm42.006-4.3877v-5.5128l17.25-0.3326c15.918-0.30692 17.534-0.50928 20.929-2.6203 4.964-3.0867 8.2337-9.8577 7.5764-15.689-0.90662-8.0435-4.8946-11.383-17.853-14.949-9.5173-2.6194-13.562-9.0922-11.008-17.616 2.1925-7.3178 4.0599-7.9572 23.24-7.9572h16.865v11h-14.441c-7.9425 0-14.688 0.39901-14.989 0.88669-0.84228 1.3628 1.5154 2.779 5.93 3.5619 13.984 2.4802 22.5 12.304 22.5 25.956 0 11.781-4.5106 19.794-14.144 25.127-5.3014 2.9348-5.5402 2.9683-23.606 3.3118l-18.25 0.34697zm-282.78-11.239c-4.6514-3.258-5.2168-6.0691-5.2168-25.939 0-28.174-0.67926-27.5 27.723-27.5h20.277v10.956l-37.5 0.54413v32h6c4.6667 0 6-0.33333 6-1.5 0-1.08-1.3299-1.5853-4.75-1.8048l-4.75-0.30479v-10.89h22v26h-13.777c-10.866 0-14.248-0.32977-16.006-1.5607zm242 0c-3.9155-2.7425-5.2168-6.7061-5.2168-15.89v-8.5497h35v11h-12.573c-11.436 0-12.543 0.15831-12.237 1.75 0.30029 1.564 2.0082 1.7793 16.073 2.0254l19.737 0.225-9e-4 11.126-21.276-0.12659c-14.038-0.0835-17.695-0.29263-19.506-1.5607zm40.783-3.8762v-5.5631h15c12.581 0 15-0.23884 15-1.4809 0-0.81452-1.2375-1.7538-2.75-2.0873-9.5179-2.0986-13.671-3.8175-17.431-7.214-5.5539-5.0176-7.995-10.979-8.0745-19.718-0.10449-11.476 5.437-20.925 15.017-25.606 4.2908-2.0964 6.4144-2.3515 22.488-2.7017l17.75-0.38676v11.026l-16.75 0.33429c-14.338 0.28616-17.204 0.6093-19.906 2.2442-4.7104 2.8508-7.3443 8.269-7.3443 15.108 0 5.4362 0.23134 5.9768 4.2989 10.044 2.3644 2.3644 5.6269 4.6003 7.25 4.9687 8.9674 2.0353 11.127 2.9455 14.141 5.9588 2.879 2.8791 3.3104 3.9729 3.3104 8.3946 0 4.2031-0.5053 5.6502-2.9157 8.35l-2.9157 3.2658-36.169 0.62625zm-46-32.113c0-9.1836 1.3013-13.147 5.2168-15.89 1.8104-1.2681 5.4677-1.5607 19.506-1.5607h17.277v10.949l-15.737 0.27539c-14.065 0.24613-15.773 0.46134-16.073 2.0254-0.30559 1.5917 0.80141 1.75 12.237 1.75h12.573v11h-35z"/>
 </g>
</svg>
