<?xml version="1.0" encoding="UTF-8"?>
<!-- Created with Inkscape (http://www.inkscape.org/) -->
<svg width="287.82mm" height="86.509mm" version="1.1" viewBox="0 0 287.82 86.509" xmlns="http://www.w3.org/2000/svg" xmlns:cc="http://creativecommons.org/ns#" xmlns:dc="http://purl.org/dc/elements/1.1/" xmlns:rdf="http://www.w3.org/1999/02/22-rdf-syntax-ns#">
 <metadata>
  <rdf:RDF>
   <cc:Work rdf:about="">
    <dc:format>image/svg+xml</dc:format>
    <dc:type rdf:resource="http://purl.org/dc/dcmitype/StillImage"/>
    <dc:title/>
   </cc:Work>
  </rdf:RDF>
 </metadata>
 <g transform="matrix(.77656 0 0 .77656 -2.1073 -223.84)">
  <g transform="matrix(.4878 0 0 .4878 95.642 411.74)">
   <g transform="translate(809.03 -62.867)">
    <path transform="matrix(.69847 0 0 .69847 -999.45 -173.51)" d="m124.31 214.63c-22.699 0-40.973 18.274-40.973 40.973v6.3613c0 22.699 18.274 40.973 40.973 40.973h839.04c22.699 0 40.973-18.274 40.973-40.973v-6.3613c0-22.699-18.274-40.973-40.973-40.973zm403.45 23.82c2.5827 0 5.1302 0.25612 7.6426 0.76562 2.5298 0.49192 4.7178 1.1156 6.5625 1.8711l-4.2656 7.0137c-0.81961-0.41461-1.699-0.79436-2.6387-1.1387-2.2839-0.86087-4.6204-1.291-7.0098-1.291-0.84331 0-1.688 0.0626-2.5312 0.18555-0.82574 0.10537-1.6255 0.31658-2.3984 0.63281-0.68517 0.26354-1.2738 0.6663-1.7656 1.2109-0.49192 0.52705-0.73633 1.1331-0.73633 1.8184 0 1.0366 0.39494 1.8362 1.1855 2.3984 0.79059 0.54463 2.2844 1.0451 4.4805 1.502 1.4406 0.29867 2.819 0.58805 4.1367 0.86914 1.3352 0.2811 2.7664 0.66824 4.2949 1.1602 3.0043 0.98385 5.2175 2.329 6.6406 4.0332 1.4406 1.6866 2.1621 3.8822 2.1621 6.5879 0 3.865-1.6424 7.0091-4.9277 9.4336-3.2677 2.407-7.7139 3.6113-13.336 3.6113-3.2503 0-6.0873-0.28155-8.5117-0.84375-2.407-0.57977-4.6633-1.309-6.7715-2.1875l3.25-7.582c1.272 0.72691 3.4444 1.5284 4.8652 2.0215 2.6001 0.89601 5.095 1.3438 7.4844 1.3438 0.61491 0 1.4244-0.0528 2.4258-0.1582 1.0014-0.10537 1.8168-0.28139 2.4492-0.52734 0.77302-0.31625 1.4065-0.7112 1.8984-1.1856 0.5095-0.47435 0.76367-1.1763 0.76367-2.1074 0-0.86087-0.36758-1.5999-1.1055-2.2148-0.72032-0.63254-1.7839-1.1154-3.1894-1.4492-1.4758-0.35139-3.0399-0.67594-4.6914-0.97461-1.6339-0.31625-3.1707-0.7112-4.6113-1.1856-3.303-1.0717-5.6844-2.5205-7.1426-4.3477-1.4406-1.8448-2.1602-4.1303-2.1602-6.8535 0-3.6543 1.6346-6.6321 4.9024-8.9336 3.2853-2.3191 7.5009-3.4785 12.648-3.4785zm95.365 0c2.5826 0 5.1302 0.25612 7.6426 0.76562 2.5299 0.49192 4.7178 1.1156 6.5625 1.8711l-4.2656 7.0137c-0.81961-0.41461-1.699-0.79436-2.6387-1.1387-2.2839-0.86087-4.6204-1.291-7.0098-1.291-0.8433 0-1.686 0.0626-2.5293 0.18555-0.82574 0.10537-1.6255 0.31658-2.3984 0.63281-0.68517 0.26354-1.2738 0.6663-1.7656 1.2109-0.49192 0.52705-0.73828 1.1331-0.73828 1.8184 0 1.0366 0.39495 1.8362 1.1856 2.3984 0.79059 0.54463 2.2844 1.0451 4.4805 1.502 1.4406 0.29867 2.819 0.58805 4.1367 0.86914 1.3352 0.2811 2.7684 0.66824 4.2969 1.1602 3.0043 0.98385 5.2175 2.329 6.6406 4.0332 1.4406 1.6866 2.1602 3.8822 2.1602 6.5879 0 3.865-1.6424 7.0091-4.9277 9.4336-3.2677 2.407-7.712 3.6113-13.334 3.6113-3.2503 0-6.0873-0.28155-8.5117-0.84375-2.407-0.57977-4.6652-1.309-6.7734-2.1875l3.25-7.582c1.2719 0.72691 3.4464 1.5284 4.8672 2.0215 2.6002 0.89601 5.095 1.3438 7.4844 1.3438 0.6149 0 1.4224-0.0528 2.4238-0.1582 1.0014-0.10537 1.8188-0.28139 2.4512-0.52734 0.77302-0.31625 1.4045-0.7112 1.8965-1.1856 0.50951-0.47435 0.76563-1.1763 0.76563-2.1074 0-0.86087-0.36953-1.5999-1.1074-2.2148-0.72032-0.63252-1.784-1.1154-3.1895-1.4492-1.4758-0.35139-3.038-0.67594-4.6894-0.97461-1.6339-0.31625-3.1727-0.7112-4.6133-1.1856-3.303-1.0717-5.6824-2.5205-7.1406-4.3477-1.4406-1.8448-2.1621-4.1303-2.1621-6.8535 0-3.6543 1.6346-6.6321 4.9023-8.9336 3.2853-2.3191 7.5009-3.4785 12.648-3.4785zm-192.21 1.418h11.49l9.248 15.178 8.832-15.178h11.123l-15.105 24.061v15.18h-10.119v-14.705l-15.469-24.535zm124.17 0h11.49l9.25 15.178 8.832-15.178h11.121l-15.105 24.061v15.18h-10.119v-14.705l-15.469-24.535zm-215.08 4e-3h10.119v31.648h18.184v7.5918h-28.303v-39.24zm52.51 0h11.648l17.906 39.24h-10.463l-3.3516-7.9336h-19.904l-3.541 7.9336h-10.199l17.904-39.24zm306.93 0h30.182v7.5898h-20.115v6.7715h18.797v7.5898h-18.797v9.6992h20.115v7.5898h-30.182v-39.24zm47.734 0h9.8633l14.4 27.115 14.371-27.115h9.8633l1.4394 39.24h-10.605l-0.90039-18.914-10.955 18.904h-6.9824l-10.955-18.904-0.89844 18.914h-10.08l1.4394-39.24zm-456.78 0.01h16.656c2.4948 0 4.5928 0.21899 6.2969 0.6582 1.7218 0.42166 3.2429 1.063 4.5606 1.9238 1.5812 1.0366 2.7837 2.3622 3.6094 3.9785 0.84331 1.6163 1.2656 3.5578 1.2656 5.8242 0 1.757-0.30697 3.4795-0.92188 5.166-0.61491 1.669-1.4947 3.0748-2.6367 4.2168-1.5636 1.546-3.3115 2.7133-5.2441 3.5039-1.915 0.7906-4.3043 1.1875-7.168 1.1875h-6.2969v12.781h-10.121v-39.24zm361.57 0h34.627v7.5898h-12.254v31.648h-10.119v-31.648h-12.254zm-351.45 7.3262v11.754h2.8984c1.7218 0 3.1354-0.10559 4.2422-0.31641 1.1244-0.21082 2.0648-0.63314 2.8203-1.2656 0.65004-0.5622 1.1154-1.2289 1.3965-2.002 0.29867-0.79059 0.44726-1.7487 0.44726-2.873 0-1.1068-0.29719-2.0551-0.89453-2.8457-0.59733-0.80816-1.2915-1.3713-2.082-1.6875-1.0541-0.42165-2.0826-0.65041-3.084-0.68554-1.0014-0.0527-2.3369-0.0781-4.0059-0.0781h-1.7383zm97.682 2.7051-6.9609 14.072h13.984l-7.0234-14.072z" color="#000000" color-rendering="auto" fill="#fff" fill-rule="evenodd" image-rendering="auto" shape-rendering="auto" solid-color="#000000" stroke-width="1.4317" style="isolation:auto;mix-blend-mode:normal"/>
   </g>
   <g transform="translate(-262.3,-783.47)" clip-rule="evenodd" fill-rule="evenodd">
    <path d="m206.12 564.37-35.923 37.943-23.726-16.266s7.8062-7.4495 0.68525-12.875c-5.5526-4.2316-21.13 4.7438-20.455 22.366 0.79122 20.328 13.352 31.843 27.226 31.843 12.886 0 16.269-10.388 16.269-10.388h28.869v23.952l40.585-107.07h46.424l37.276 96.235s2.7092 5.0723 5.4184 6.4286c0 0 0.15554-63.128 0.15554-64.901 0-1.7661-0.23303-3.7194-1.3387-4.9875-1.8191-2.0946-4.9168-2.9635-4.9168-2.9635v-29.812h65.053c33.743 0 42.397 9.1484 52.181 26.771 13.507-18.187 32.104-30.162 58.621-30.162 27.279 0 46.583 10.056 57.607 26.767 15.397-18.406 40.179-26.937 62.856-26.937 27.869 0 51.143 13.507 63.188 34.393v-30.833h62.679l6.6052 16.764 4.9204-16.764h64.717v29.134s-3.7335 1.0243-4.765 2.7057c-1.0032 1.6602-0.82654 6.9585-0.82654 6.9585l9.0284 57.589c0.37793 1.8721 1.0455 3.829 2.6598 5.263 1.8721 1.6743 4.4011 1.3599 4.4011 1.3599v33.196h-65.053v-25.075h-37.268v25.142h-61.16v-16.344s-22.352 19.66-51.161 19.66c-36.869 0-61.503-27.103-61.503-27.103v23.715h-43.362c-38.597 0-71.729-21.119-80.983-59.634-4.387 4.1963-23.733 18.007-46.933 23.21-1.805 0.40621-2.7057 1.0808-2.7057 3.0377 0 3.5675 7.6225 4.8391 7.6225 4.8391v28.544h-237.85c-44.054 8e-3 -79.443-30.148-79.443-68.433 0-38.289 27.59-70.821 73.329-70.821 43.715 0 60.998 33.553 60.998 33.553z" fill="#0c4da1"/>
    <g fill="#ffca08">
     <path d="m189 564.97-19.138 20.067s-1.0173 0.51217-1.8615 0.51217c-0.85127 0-2.0416-0.85127-2.0416-0.85127l-2.3666-2.024s-0.68172-0.16598-0.68172-0.85127c0-0.66757 1.865-2.3736 1.865-5.5915 0-3.2214-0.67466-16.605-21.342-16.605s-29.815 19.314-29.815 35.241 9.8196 45.064 42.019 45.064c18.724 0 22.691-10.512 22.691-10.512h6.4357v27.452h-35.234c-42.012 0-65.396-32.874-65.396-56.59 0-36.364 31.62-56.544 60.313-56.544 27.784 3e-3 44.552 21.232 44.552 21.232z"/>
     <path d="m248.3 546.76h28.968l35.241 92.163c1.0102 2.5326 2.7057 4.9204 4.3976 6.9408 1.6884 2.0345 5.7575 3.398 5.7575 3.398v7.951h-42.51v-8.1312s2.7021 0.34968 4.0621-2.0275c1.3528-2.3737 1.3528-4.2351 0.34262-6.6052-1.0173-2.3772-8.1488-21.176-8.1488-21.176h-34.722s-7.1104 18.972-7.7956 20.663c-0.67818 1.6919-0.67818 4.4082 0 6.0966 1.1268 2.8187 5.0864 3.232 5.0864 3.232v7.951h-34.058v-7.951s3.0978-1.0668 5.422-3.398c2.5397-2.5397 3.3839-5.2559 3.3839-5.2559zm-0.85479 55.226h22.37l-11.519-32.186z"/>
     <path d="m336.22 546.76h54.216c19.992 0 39.978 7.1068 39.978 30.147 0 23.041-14.57 31.179-27.103 36.94-14.472 6.6476-33.542 11.861-33.542 11.861v17.612s0.16955 1.1904 1.8615 3.2108c1.699 2.0346 3.5605 2.5467 3.5605 2.5467v8.1312h-39.307v-7.951s2.3701-0.51572 4.0727-2.2077c1.6884-1.6955 2.0345-3.73 2.0345-3.73v-79.623s0.15554-3.3909-1.1904-4.7402c-1.3528-1.367-4.5778-3.2214-4.5778-3.2214v-8.9754zm33.885 16.598v47.095s31.846-13.21 31.846-31.846c0-23.041-31.846-15.249-31.846-15.249z"/>
     <path d="m547.82 565.16-19.145 20.067s-1.0173 0.50865-1.865 0.50865c-0.84066 0-2.0275-0.84773-2.0275-0.84773l-2.3772-2.0381s-0.67463-0.15883-0.67463-0.8336c0-0.6817 1.858-2.3878 1.858-5.5915 0-3.2249-0.6676-16.609-21.342-16.609-20.674 0-29.819 19.307-29.819 35.237 0 15.916 9.8266 45.064 42.023 45.064 18.724 0 22.695-10.508 22.695-10.508h6.4428v27.445h-35.248c-42.009 0-65.396-32.864-65.396-56.583 0-36.361 31.617-56.547 60.313-56.547 27.788 0 44.562 21.236 44.562 21.236z"/>
     <path d="m616.44 660.39c-36.601 0-62.905-26.725-62.905-59.246 0-32.542 26.986-57.745 62.905-57.745 35.905 0 62.891 25.202 62.891 57.745 0 32.518-26.308 59.246-62.891 59.246zm-32.539-58.744c0 32.528 16.605 40.659 32.539 40.659 15.913 0 32.864-10.166 32.864-40.659 0-30.49-18.975-40.659-32.864-40.659-13.896 0-32.539 8.1241-32.539 40.659z"/>
     <path d="m695.71 546.83h40.327l14.57 44.993 15.581-45.064h42.178v6.6017s-2.8046 1.1868-4.0515 2.7128c-1.5259 1.865-1.5259 3.2178-1.1904 5.9376 0.33911 2.7021 11.179 76.232 11.522 78.945 0.34262 2.7128 0.67466 4.2351 1.3528 6.1002 0.67112 1.8474 3.8996 3.3803 3.8996 3.3803v6.8348h-40.497v-7.34s3.557-0.50511 4.7508-2.2076c1.1868-1.6955 1.6884-2.7127 1.3528-5.4184-0.33911-2.7092-9.9891-64.378-9.9891-64.378l-17.622 54.552h-21.345l-17.456-51.171-8.8058 60.316s-0.34262 3.6205 1.0173 5.595c1.8615 2.7127 5.2595 2.7127 5.2595 2.7127v7.2799h-35.082v-7.7815s2.794-0.43094 4.825-2.8081c2.031-2.3631 2.3736-5.422 2.3736-5.422l12.797-79.539s0.76649-2.9706-0.0846-4.3199c-0.89365-1.427-5.6798-2.6244-5.6798-2.6244v-7.8874h-3e-3z"/>
    </g>
   </g>
  </g>
 </g>
</svg>
