<?xml version="1.0" encoding="UTF-8"?>
<svg width="144" height="56" version="1.1" xmlns="http://www.w3.org/2000/svg" xmlns:cc="http://creativecommons.org/ns#" xmlns:dc="http://purl.org/dc/elements/1.1/" xmlns:rdf="http://www.w3.org/1999/02/22-rdf-syntax-ns#" xmlns:xlink="http://www.w3.org/1999/xlink">
 <metadata>
  <rdf:RDF>
   <cc:Work rdf:about="">
    <dc:format>image/svg+xml</dc:format>
    <dc:type rdf:resource="http://purl.org/dc/dcmitype/StillImage"/>
    <dc:title/>
   </cc:Work>
  </rdf:RDF>
 </metadata>
 <rect x="15.292" y="3.9132" width="113.42" height="25.41" rx="12.705" ry="12.705" fill="#fff" stroke="red" stroke-width="3.4087"/>
 <g fill="red">
  <path d="m39.3 23.3v-13.3h-4v9.3l-5.9-9.3h-4.3v13.3h4v-9.6l6.2 9.6h4z"/>
  <path d="m45.8 23.3v-9h-4v9h4z"/>
  <path d="m45.8 12.4v-2.4h-4v2.4h4z"/>
  <path id="3162" d="m59.8 23.3v-6.2c0-1.3-2.5-3.1-3.8-3.1h-1.2c-0.9 0-1.9 0.8-2.8 1.2v-0.9h-4v9h4v-6.2c0-0.6 1.4-1.3 2-1.3s1.7 0.7 1.7 1.3v6.2h4.1z" fill="red"/>
  <use transform="translate(33.467 .30988)" width="467" height="187" href="#3162" xlink:href="#3162"/>
  <path d="m66.3 23.3v-9h2.1v-1.2h-2.1v-1.9h-4.1v1.9h-2.1v1.2h2.1v9h4.1z"/>
  <path d="m74 14c-3.2 0-5.9 2.2-5.9 4.9 0 2.8 2.7 5 5.9 5 2.8 0 5.1-1.6 5.7-3.7h-4.1v1.2c0 1-0.7 1.3-1.6 1.3s-1.5-0.3-1.5-1.3v-2.5h7.4c0-2.7-2.6-4.9-5.9-4.9zm0 0.9c0.9 0 1.6 0.6 1.6 1.6v0.9h-3.1v-0.9c0-1 0.6-1.6 1.5-1.6z"/>
  <path d="m113.4 14c-3.3 0-5.9 2.2-5.9 4.9 0 2.8 2.6 5 5.9 5 3.2 0 5.9-2.2 5.9-5 0-2.7-2.7-4.9-5.9-4.9zm0 0.9c0.9 0 1.5 0.6 1.5 1.6v4.9c0 1-0.6 1.3-1.5 1.3-1 0-1.6-0.3-1.6-1.3v-4.9c0-1 0.6-1.6 1.6-1.6z"/>
  <path d="m101.9 10v4.9s-1.2-0.9-2.8-0.9c-2.5 0-4.6 2.2-4.6 4.6 0 2.5 2.1 5 4.6 5 1.6 0 2.8-0.6 2.8-0.6v0.3h4v-13.3h-4zm-1.5 5.5c0.9 0 1.5 0.7 1.5 1.6v3.7c0 0.9-0.6 1.2-1.5 1.2-1 0-1.6-0.3-1.6-1.2v-3.7c0-0.9 0.6-1.6 1.6-1.6z"/>
 </g>
 <path d="m121.7 12.1c0 1-0.9 1.9-1.9 1.9-1.1 0-1.9-0.9-1.9-1.9 0-1.1 0.8-2 1.9-2 1 0 1.9 0.9 1.9 2zm-1.4 0.8-0.4-0.7h-0.7 0.7c0.6 0 0.6-1 0-1h-0.7v1.7" fill="none" stroke="red" stroke-width=".3194"/>
 <g fill="#ffffff">
  <path id="2399" d="m23.6 42.8v-5.8c0-1.1-1.1-2.2-2.2-2.2h-8.4v8h2.6v-5.4c0-0.4 0.3-0.8 0.7-0.8h4c0.4 0 0.8 0.4 0.8 0.8v5.4h2.5z" fill="#fff"/>
  <use id="use3171" transform="translate(69.393)" width="467" height="187" fill="#ffffff" href="#2399" xlink:href="#2399"/>
  <use transform="translate(37.983)" width="467" height="187" href="#use3171" xlink:href="#use3171"/>
  <path id="3177" d="m108.3 42.8v-5.8c0-1.1-1.1-2.2-2.2-2.2h-11.3v8h2.6v-5.4c0-0.4 0.3-0.8 0.7-0.8h1.5c0.3 0 0.7 0.4 0.7 0.8v5.4h2.6v-5.4c0-0.4 0.3-0.8 0.7-0.8h1.5c0.3 0 0.7 0.4 0.7 0.8v5.4h2.5z" fill="#fff"/>
  <path id="3181" d="m11.2 42.8h-6.6c-1.1 0-2.2-0.7-2.2-1.8v-6.3h8.8v1.9h-5.9c-0.3 0-0.7 0.3-0.7 0.7s0.4 0.7 0.7 0.7h5.5v1.6h-5.5c-0.3 0-0.7 0.4-0.7 0.7 0 0.4 0.4 0.8 0.7 0.8h5.9v1.7z" fill="#fff"/>
  <use transform="translate(32.505)" width="467" height="187" href="#3181" xlink:href="#3181"/>
  <use transform="translate(107.74 -1.1764e-7)" width="467" height="187" href="#3181" xlink:href="#3181"/>
  <path id="2391" d="m24.7 34.8v1.8h2.6c0.7 0 0.7 0 0.7 0.8v5.4h2.5v-5.4c0-0.8 0-0.8 0.8-0.8h2.5v-1.8h-9.1z" fill="#fff"/>
  <use transform="translate(31.774)" width="467" height="187" href="#2391" xlink:href="#2391"/>
  <use transform="translate(107.74)" width="467" height="187" href="#2391" xlink:href="#2391"/>
 </g>
 <g fill="#fff">
  <path d="m45.5 34.8v8h2.6v-1.4c0-0.4 0.3-0.8 0.7-0.8h3.3c0.4 0 0.7 0.4 0.7 0.8v1.4h2.2v-2.2c0-0.3-0.3-0.7-0.3-1.1 0-0.3 0.7-1 0.7-1.8v-0.7c0-0.7-1.1-2.2-1.8-2.2h-8.1zm3.3 1.8h3.3c0.4 0 0.7 0.4 0.7 0.8v0.7c0 0.4-0.3 0.7-0.7 0.7h-3.3c-0.4 0-0.7-0.3-0.7-0.7v-0.7c0-0.4 0.3-0.8 0.7-0.8z"/>
  <path d="m68.5 34.8c-0.7 0-1.8 1.5-1.8 2.2v5.8h2.6v-2.2h4.7v2.2h2.6v-5.8c0-0.7-1.1-2.2-1.9-2.2h-6.2zm1.5 1.8h3.3c0.3 0 0.7 0.4 0.7 0.8v1.4h-4.7v-1.4c0-0.4 0.3-0.8 0.7-0.8z"/>
  <path d="m80.9 42.8v-8h-2.5v8h2.5z"/>
 </g>
 <g fill="#ffffff">
  <use transform="translate(-3.287 10.957)" width="467" height="187" href="#3177" xlink:href="#3177"/>
  <use transform="translate(78.523 10.957)" width="467" height="187" href="#3181" xlink:href="#3181"/>
  <use transform="translate(46.018 10.957)" width="467" height="187" href="#2391" xlink:href="#2391"/>
 </g>
 <g>
  <path id="3187" d="m41.1 45.8c-0.7 0-2.2 1.1-2.2 1.8v1.1c0 0.7 1.5 1.8 2.2 1.8h4.4c0.4 0 0.8 0.4 0.8 0.7 0 0.4-0.4 0.8-0.8 0.8h-6.6v1.8h7.4c0.7 0 2.1-1.1 2.1-1.8v-1.1c0-0.8-1.4-1.9-2.1-1.9h-4.4c-0.4 0-0.8-0.3-0.8-0.7s0.4-0.7 0.8-0.7h6.5v-1.8h-7.3z" fill="#fff"/>
  <use transform="translate(21.183)" width="467" height="187" fill="#ffffff" href="#3187" xlink:href="#3187"/>
  <path d="m49.2 45.8v3.6c0 0.7 1.1 1.8 1.8 1.8h1.8v2.6h2.6v-2.6h1.8c0.7 0 1.8-1.1 1.8-1.8v-3.6h-2.5v2.9c0 0.3-0.4 0.7-0.8 0.7h-3.2c-0.4 0-0.8-0.4-0.8-0.7v-2.9h-2.5z" fill="#fff"/>
 </g>
</svg>
