<?xml version="1.0" encoding="UTF-8"?>
<svg width="6512.5" height="1329.6" version="1.1" viewBox="0 0 502.13 102.51" xmlns="http://www.w3.org/2000/svg" xmlns:cc="http://creativecommons.org/ns#" xmlns:dc="http://purl.org/dc/elements/1.1/" xmlns:rdf="http://www.w3.org/1999/02/22-rdf-syntax-ns#">
 <metadata>
  <rdf:RDF>
   <cc:Work rdf:about="">
    <dc:format>image/svg+xml</dc:format>
    <dc:type rdf:resource="http://purl.org/dc/dcmitype/StillImage"/>
    <dc:title/>
   </cc:Work>
  </rdf:RDF>
 </metadata>
 <g transform="translate(-32.075 -29.188)" clip-rule="evenodd" fill-rule="evenodd">
  <path d="m70.708 88.128 11.317 3.363v-7.277zm30.585 9.091 19.707 5.855 8.371-3.068c1.797-0.66 7.709-1.666 12.363-0.281 3.336 0.992 2.055 3.059-0.336 3.889l-8.59 2.971 18.984 5.641 1.512-0.537s21.145-8.061 0.498-16.241c-20.652-8.187-43.443-1.43-43.443-1.43z" fill="#578bc5"/>
  <path d="m152.9 111.83-19.006-5.623-32.232 11.148v0.619l17.688 5.803zm-30.871-9.135-19.725-5.836-31.317 11.051 19.417 6.371zm-40.008-11.839-10.35-3.062-29.462 10.188s-0.251 0.094-0.671 0.266l18.595 6.102 21.888-7.613z" fill="#3aacc0"/>
  <path d="m120.47 123.38-18.705-6.061-0.098 0.035v11.311l0.83 1.113zm-29.136-9.438-19.519-6.324-5.381 1.898s-7.604 2.494-12.747 0.469c-5.146-2.023 1.79-4.016 1.79-4.016l5.422-1.887-18.754-6.073c-1.331 0.502-21.399 8.348-0.891 16.332 15.634 6.08 35.014 3.213 40.872 1.717l0.01 1.254z" fill="#e9c83a"/>
  <path d="m81.186 122.93v-93.742c17.74 4.668 25.295 7.265 32.318 9.694 10.146 3.503 21.246 8.773 20.914 29.216-0.311 18.821-10.227 20.059-14.33 20.136-4.809 0.092-9.627-2.549-9.627-2.549v-33.469c0-0.666 0.406-4.658-3.855-5.71-2.547-0.628-4.109 1.991-4.109 3.299v79.972z" fill="#b8394b"/>
  <path d="m219.99 59.047h8.2038v52.473h-8.2038zm82.685 12.241-10.913 26.938-9.9118-26.938h-8.86l14.135 38.385-8.9134 22.028h7.7768l24.47-60.413zm-90.098-4.992c-1.5698-4.9418-6.43-7.2494-15.444-7.2494h-17.224v52.473h8.2007v-46.997h9.3498c1.5981 0 4.9826 0.20094 6.8412 4.1883 1.4254 3.0737 1.1993 9.9024 0.31083 13.124-1.1679 4.2542-4.5901 4.2542-7.9652 4.2542h-4.0313v5.1584h8.7753c6.1286-0.16012 9.5853-2.7911 11.186-7.2431 2.0313-5.6576 1.6954-12.398 0-17.707zm131.04 20.922c-1.5761-4.9418-3.4159-6.8444-12.427-7.2776-4.3233-0.20722-6.4017-0.34223-7.7172-3.1836-1.0926-2.3547-0.46466-7.4189 0.76607-9.579 1.35-2.3861 4.452-2.9199 7.8491-2.9199h9.0013v-5.1584h-13.767c-6.1066 0.16641-9.8113 2.5871-11.293 6.7377-2.0533 5.689-1.9214 10.05-0.22607 15.416 1.4788 4.6121 6.1191 6.3295 11.478 6.6466 5.3688 0.32023 7.2274 0.63734 8.32 3.036 1.168 2.5337 0.94189 8.455 0 10.926-1.102 2.9261-4.5524 4.3421-7.9213 4.3421h-11.259v5.1647h16.006c6.1286-0.1727 9.5884-2.7911 11.196-7.2557 2.0125-5.6482 1.6797-11.579-7e-3 -16.894zm-76.481-9.7328c-2.0219-4.3484-5.9967-5.9653-14.135-6.1003h-11.519v5.1333h11.121c2.8414 0 5.9621 1.3375 6.8946 4.2856 0.27944 0.8634 0.4521 1.912 0.42071 2.9544l-0.0127 22.304s-7.7266 0.0723-9.3278 0.0723c-1.62 0-5.51-0.3014-6.072-3.4756-0.46467-2.6122-0.48351-4.003-0.15071-7.0076 0.3799-3.4159 4.408-4.4018 7.2525-4.4018h3.3814v-5.1333h-3.7927c-8.1191 0.13501-13.447 1.5949-14.719 6.2133-1.1679 4.273-1.124 8.4016 0.19465 12.847 1.168 3.9748 5.2086 6.3452 14.235 6.3452l17.215-0.0723 9e-3 -27.582c-0.18209-1.9905-0.16325-4.6152-0.99526-6.3829zm139.35 0c-2.0251-4.3484-6.0092-5.9653-14.147-6.1003h-11.522v5.1333h11.124c2.8508 0 5.9653 1.3375 6.8915 4.2856 0.28256 0.8634 0.45524 1.912 0.42384 2.9544l-0.0127 22.304s-7.7141 0.0723-9.3278 0.0723c-1.6075 0-5.5132-0.3014-6.0783-3.4756-0.45838-2.6122-0.48349-4.003-0.135-7.0076 0.36734-3.4159 4.3955-4.4018 7.2431-4.4018h3.3908v-5.1334h-3.799c-8.1191 0.13501-13.447 1.5949-14.722 6.2133-1.1648 4.273-1.1208 8.4016 0.19464 12.847 1.1648 3.9748 5.2118 6.3452 14.232 6.3452l17.211-0.0723 0.0128-27.582c-0.1821-1.9905-0.1664-4.6152-0.97956-6.3829zm-35.666-0.99839v-5.1459h-9.353v-7.4566h-8.1882v40.558c0 3.441 1.2213 7.0202 7.9841 7.0202h7.6293v-5.3531s-2.4834-0.066-3.8743 0c-2.562 0.0973-3.5509-2.5211-3.5509-5.3091v-24.313zm63.738 0v-5.1459h-9.3341v-7.4566h-8.2038v40.558c0 3.441 1.2276 7.0202 7.9841 7.0202h7.6356v-5.3531s-2.4897-0.066-3.8806 0c-2.5619 0.0973-3.5321-2.5211-3.5321-5.3091v-24.313zm6.5932-5.1992h8.2164v40.231h-8.2164zm0-12.241h8.2164v7.2494h-8.2164zm92.066 18.439c-2.0188-4.3484-5.9967-5.9653-14.135-6.1003h-8.8726v-0.02506h-8.2039v40.159h8.2039v-35.001h8.4613c2.8445 0 5.9716 1.3375 6.904 4.2856 0.28258 0.8634 0.45525 1.912 0.4113 2.9544l0.0785 27.761h8.1379l7e-3 -27.657c-0.18211-1.9842-0.15699-4.609-0.99213-6.3766zm-57.703 34.206c8.3577 0 13.08-1.7708 15.491-6.7628 2.2762-4.678 2.2637-9.984 2.2637-13.679 0-3.7048 0.0127-9.0076-2.2637-13.686-2.4112-4.9857-7.1301-6.7565-15.491-6.7565-8.3702 0-13.117 1.7708-15.525 6.7565-2.2574 4.6781-2.2448 9.984-2.2448 13.686 0 3.6985-0.0128 9.0013 2.2448 13.679 2.4081 4.9889 7.1552 6.7628 15.525 6.7628zm-9.3624-20.433c0-11.387 2.5933-14.662 9.3624-14.828 6.7439 0.16641 9.3404 3.441 9.3404 14.828 0 11.387-3.0768 14.803-9.3404 14.803-6.2855 0-9.3624-3.4159-9.3624-14.803z" fill="#fff" stroke-width="3.1396"/>
 </g>
</svg>
