<?xml version="1.0" encoding="UTF-8"?>
<!-- Created with Inkscape (http://www.inkscape.org/) -->
<svg width="194.57mm" height="36.856mm" version="1.1" viewBox="0 0 194.57 36.856" xmlns="http://www.w3.org/2000/svg" xmlns:cc="http://creativecommons.org/ns#" xmlns:dc="http://purl.org/dc/elements/1.1/" xmlns:rdf="http://www.w3.org/1999/02/22-rdf-syntax-ns#">
 <metadata>
  <rdf:RDF>
   <cc:Work rdf:about="">
    <dc:format>image/svg+xml</dc:format>
    <dc:type rdf:resource="http://purl.org/dc/dcmitype/StillImage"/>
    <dc:title/>
   </cc:Work>
  </rdf:RDF>
 </metadata>
 <g transform="translate(-10.751 -118.31)">
  <g transform="matrix(.26458 0 0 .26458 4.0308 55.551)">
   <g>
    <g>
     <path class="st0" d="m25.9 312.4c0-8.4 13.4-15.2 29.9-15.2 16.6 0 30 6.8 30 15.2s-13.4 15.2-30 15.2c-16.5 0-29.9-6.8-29.9-15.2z" fill="#007308" stroke="#007308"/>
     <path class="st1" d="m81.2 340.5c0-8.8 14.1-15.9 31.5-15.9s31.5 7.1 31.5 15.9-14.1 15.9-31.5 15.9-31.5-7.1-31.5-15.9z" fill="#ff0" stroke="#ff0"/>
     <path class="st2" d="m94.1 305.6c15.2-0.6 27.3-13.1 27.3-28.4 0-15.7-12.7-28.4-28.4-28.4-15.6 0-28.2 12.5-28.4 28.1h1.1c15.7 0 28.4 12.7 28.4 28.4z" fill="#0000f7" stroke="#0000f7"/>
     <path transform="translate(-15.234 -209.96)" d="m163.54 488.26c-15.2 0-27.501 12.2-27.701 27.4h1.0996c15.3 0 27.701 12.399 27.701 27.699v0.30078c14.8-0.6 26.6-12.701 26.6-27.701 0-15.3-12.399-27.699-27.699-27.699z" fill="#ff0800" stroke="#ff0800"/>
    </g>
    <polygon class="st4" points="601.9 280 607.9 249.4 621.7 249.4 623.7 237.2 597.6 237.2 578.2 335.8 606.1 335.8 608.1 323.6 594.3 323.6 600 290.3 613.7 290.3 615.7 280" fill="#fffffe"/>
    <g fill="#fff">
     <polygon class="st4" points="351.7 280 357.7 249.4 371.5 249.4 373.5 237.2 347.4 237.2 328 335.8 355.9 335.8 357.9 323.6 344.1 323.6 349.8 290.3 363.5 290.3 365.5 280"/>
     <polygon class="st4" points="568.9 249.4 553.5 335.8 567.7 335.8 583.3 249.4 590.8 249.4 592.7 237.2 563.5 237.2 561.1 249.4"/>
     <polygon class="st4" points="640.8 335.8 653.2 335.8 671.9 237.2 657.6 237.2 648 288.7 641.5 237.2 629.1 237.2 610.4 335.8 624.7 335.8 636.2 278.6"/>
     <polygon class="st4" points="458.8 335.8 471.3 335.8 490 237.2 475.7 237.2 466 288.7 459.6 237.2 447.1 237.2 428.4 335.8 442.8 335.8 454.3 278.6"/>
     <polygon class="st4" points="527.1 335.8 539.5 335.8 558.2 237.2 543.9 237.2 534.3 288.7 527.8 237.2 515.4 237.2 496.7 335.8 511 335.8 522.5 278.6"/>
    </g>
    <polygon class="st4" points="490.1 335.8 508.9 237.2 496.4 237.2 477.7 335.8" fill="#fff8ff"/>
    <path class="st4" d="m720.3 247-13.9 79.6c-0.9 5.1 2.6 9.2 7.7 9.2h20.4c5.1 0 10.1-4.1 11-9.2l15.1-79.6c1-5.4-2.4-9.8-7.8-9.8h-21.1c-5.4 0-10.4 4.4-11.4 9.8zm12.2 8.2c0.6-3.7 3.2-6.6 6.8-6.6 3.7 0 6.1 3 5.5 6.6l-11.6 64.4c-0.6 3.7-4.1 6.6-7.8 6.6s-5.2-3-4.6-6.6z" fill="#fff"/>
    <path class="st4" d="m255.5 324.1 15.4-86.9h-12.5l-15.4 89.4c-0.9 5.1 2.6 9.2 7.7 9.2h18.5c5.1 0 10.1-4.1 11-9.2l16.6-89.4h-11.6l-15.8 86.9c-0.2 1.3-1.5 2.3-2.7 2.3h-9.2c-1.4 0-2.2-1-2-2.3z" fill="#fff"/>
    <path class="st4" d="m678.4 237.2-18.7 98.6h28.3c5.1 0 10.1-4.1 11-9.2l15.1-79.6c1-5.4-2.4-9.8-7.8-9.8zm-3.9 89.1 14.5-77.7h5.7c3.7 0 6.1 3 5.5 6.6l-12.2 64.5c-0.6 3.7-4.1 6.6-7.8 6.6z" fill="#fffffd"/>
    <g fill="#fff">
     <path class="st4" d="m307.4 280v-0.5 0.5zm8.1-42.8h-12.4l-18.7 98.6h12.4l8.5-44.6h15.8c5.1 0 10.1-4.1 11-9.2l6.8-35c1-5.4-2.4-9.8-7.8-9.8zm-6.2 44.6c-1.1 0-1.9-0.7-1.9-1.8v-0.5l5.7-29.8c0.5-0.4 1.2-0.7 1.8-0.7h6.1c1.3 0 4.1 3 3.8 4.3l-5.2 24.3c-0.2 1.3-1.9 4.2-3.1 4.2z"/>
     <path class="st4" d="m385.1 280v-0.5 0.5zm14.5 9.4h-0.8c3.6-1.4 10.2-3.7 11-7.4l6.8-35c1-5.4-2.4-9.8-7.8-9.8h-28l-18.7 98.6h12.4l8.5-44.6h8.8c1.2 1.1 1.3 3.1 1.4 4.1 0.2 1.4 0.5 3.3 0.3 4.7s-6.8 35.8-6.8 35.8h12.4s7-37.4 7-38 0-2.6-0.7-3.6c-0.4-0.7-1.3-2.3-2.2-2.9-1.6-1.1-3.6-1.9-3.6-1.9zm-8.7-39.7c0.5-0.4 1.2-0.7 1.8-0.7h5.7c1.3 0 4.1 3 3.8 4.3l-5.1 24.3c-0.2 1.3-3.4 4.2-4.6 4.2h-5.5c-1.1 0-1.9-0.7-1.9-1.8v-0.5z"/>
     <path class="st4" d="m320 358.4h1.2c0.3 0 1-0.6 1-0.9l1.1-5.4c0.1-0.3-0.6-1-0.8-1h-1.2c-0.2 0-0.3 0.1-0.4 0.2l-1.3 6.6v0.1c0 0.2 0.2 0.4 0.4 0.4zm56.6 4.8h1.6l0.5-5.6zm-181.3-18.9v32.2h553.5v-32.2zm65.6 26.1 3.4-19.2h-1.7l0.5-2.7h6.4l-0.4 2.7h-1.7l-3.4 19.2zm83.4 0 3.4-19.2h-1.7l0.5-2.7h6.5l-0.4 2.7h-1.7l-3.4 19.2zm-141.3 0 4.3-21.9h5.8l-0.4 2.7h-3.1l-1.3 6.8h3l-0.4 2.3h-3.1l-1.2 7.4h3l-0.4 2.7zm289.5 0 4.3-21.9h5.8l-0.4 2.7h-3.1l-1.3 6.8h3.1l-0.4 2.3h-3.1l-1.3 7.4h3.1l-0.4 2.7zm-252.2-21.9h3.2l-4.2 21.9h-2.7l-1-12.7-2.6 12.7h-3.2l4.1-21.9h2.7l1.4 11.4zm311.3 21.9 3.4-19.2h-1.7l0.5-2.7h6.5l-0.4 2.7h-1.7l-3.4 19.2zm-115.8-21.9h3.2l-4.1 21.9h-2.8l-1-12.7-2.6 12.7h-3.2l4.1-21.9h2.8l1.4 11.4zm95.4 0h3.2l-4.1 21.9h-2.7l-1-12.7-2.6 12.7h-3.2l4.2-21.9h2.7l1.4 11.4zm-123.9 0-4.2 21.9h-2.7l4.1-21.9zm64.1 0.1 3.5-0.1-3.7 21.8h-2.7l1.8-11.6-4.9 11.6h-1.9l-0.6-11.9-2.1 11.9h-3.2l4.1-21.9h3.6l0.6 12.7zm-184.3 21.8 4.3-21.9h5.8l-0.4 2.7h-3.1l-1.3 6.8h3.1l-0.4 2.3h-3.1l-1.3 7.4h3.1l-0.4 2.7zm35.7-10.1s1.2 0.2 1.3 0.4 0.2 0.9 0.2 1-1.6 8.7-1.6 8.7h-2.7s1.5-7.6 1.5-8c0-0.3 0-0.7-0.1-1.1 0-0.2-0.1-0.7-0.3-0.9h-1.9l-1.9 9.9h-2.7l4.1-21.9h6.1c1.2 0 1.9 1 1.7 2.2l-1.5 7.8c-0.2 0.8-1.6 1.6-2.4 1.9zm303-0.7-1.4-12h3.5l0.4 8.3 4.5-8.3h3.4l-7.1 12.7-1.8 9.2h-3.2zm112-11.9 3.5-0.1-3.7 21.9h-2.7l1.8-11.6-4.9 11.6h-1.9l-0.6-11.9-2.1 11.9h-3.2l4.1-21.9h3.6l0.6 12.7zm-61.3 21.8 3.4-19.2h-1.7l0.5-2.7h6.5l-0.4 2.7h-1.7l-3.4 19.2zm23.4 0 4.3-21.9h5.8l-0.4 2.7h-3l-1.3 6.8h3.1l-0.4 2.3h-3.1l-1.3 7.4h3.1l-0.4 2.7zm-99.8-19.7c0.2-1.2 1.3-2.2 2.5-2.2h4.3c1.2 0 1.9 1 1.7 2.2l-1 5.4h-2.7l0.6-3.6c0.1-0.8-0.4-1.5-1.2-1.5s-1.6 0.7-1.7 1.5l-0.4 2.6c-0.1 0.2 0.1 0.9 0.3 1 0.4 0.2 3.8 5.9 3.8 6.3 0.1 0.2 0.1 0.3 0.1 0.4-0.1 0.7-1.1 5.6-1.1 5.6-0.2 1.1-1.3 2-2.4 2h-4.1c-1.1 0-1.9-0.9-1.7-2l1-5.6h2.9l-0.7 4c-0.1 0.8 0.4 1.5 1.2 1.5s1.6-0.7 1.7-1.5l0.6-3.2c-0.5-1.3-3.9-6.2-4.2-7.3-0.2-0.1-0.2-0.8-0.2-1.4-0.1-0.6 0.7-4.2 0.7-4.2zm54 0c0.2-1.2 1.3-2.2 2.5-2.2h4.3c1.2 0 1.9 1 1.7 2.2l-1 5.4h-2.7l0.6-3.6c0.1-0.8-0.4-1.5-1.2-1.5s-1.6 0.7-1.7 1.5l-0.4 2.6c-0.1 0.2 0.1 0.9 0.3 1 0.3 0.2 3.8 5.9 3.8 6.3 0.1 0.2 0.1 0.3 0.1 0.4-0.1 0.7-1.1 5.6-1.1 5.6-0.2 1.1-1.3 2-2.4 2h-4.1c-1.1 0-1.9-0.9-1.7-2l0.9-5.6h2.9l-0.7 4c-0.1 0.8 0.4 1.5 1.2 1.5s1.6-0.7 1.7-1.5l0.6-3.2c-0.5-1.3-3.9-6.2-4.2-7.3-0.2-0.1-0.2-0.8-0.2-1.4s0.8-4.2 0.8-4.2zm-271.7-1.3-1.2 21.9h-3.7l0.5-5.1h-2.2l-1.9 5.1h-3.3l8.1-21.9z"/>
     <path class="st4" d="m211.4 247s-3.7 16.2-3.8 18.8c-0.1 2.4 0.2 5.6 1 6.2 0.9 5.2 18.3 29.3 17.8 33s-2.5 14.6-2.5 14.6c-0.6 3.7-3.2 6.6-6.8 6.6-3.7 0-6.1-3-5.5-6.6l3.2-18h-13l-4.4 25c-0.9 5.1 2.6 9.2 7.7 9.2h18.5c5.1 0 10.1-4.1 11-9.2 0 0 4.8-23.3 4.7-25 0-1.7-0.5-1.8-0.5-1.8v-0.1c0-1.9-15.5-27.5-17.1-28.4-0.7-0.4-1.2-2.9-1.2-4.4s2-11.7 2-11.7c0.6-3.7 4.1-6.6 7.8-6.6s5.2 3 4.6 6.6l-2.8 16.1h13l4.6-24.3c1-5.4-2.4-9.8-7.8-9.8h-19.2c-5.3 0-10.3 4.4-11.3 9.8z"/>
    </g>
   </g>
  </g>
 </g>
</svg>
