<?xml version="1.0" encoding="UTF-8"?>
<!-- Created with Inkscape (http://www.inkscape.org/) -->
<svg width="371.47mm" height="127.92mm" version="1.1" viewBox="0 0 371.47 127.92" xmlns="http://www.w3.org/2000/svg" xmlns:cc="http://creativecommons.org/ns#" xmlns:dc="http://purl.org/dc/elements/1.1/" xmlns:rdf="http://www.w3.org/1999/02/22-rdf-syntax-ns#">
 <metadata>
  <rdf:RDF>
   <cc:Work rdf:about="">
    <dc:format>image/svg+xml</dc:format>
    <dc:type rdf:resource="http://purl.org/dc/dcmitype/StillImage"/>
    <dc:title/>
   </cc:Work>
  </rdf:RDF>
 </metadata>
 <g transform="translate(-.00239 .00182)">
  <g transform="translate(473.76,160.13)" stroke-width=".035278">
   <path d="m-445.5-159.78c-11.254 2.2225-21.59 10.936-25.894 21.837-1.9403 4.9389-2.1872 6.4558-2.1872 13.229 0 5.5386 0.10584 6.7028 0.81139 9.1017 0.9525 3.3514 2.1872 6.3147 3.5983 8.7136 0.56445 0.98778 1.0583 1.8697 1.0583 1.9403 0 0.10583-1.27 0.17639-2.8222 0.17639h-2.8222v45.508l45.261-0.0705 45.226-0.10584 2.6458-1.023c3.3161-1.2347 6.2442-2.9986 9.0664-5.3975l2.1872-1.8697h8.1492v8.4667h44.344l0.21167-2.4342c0.24694-2.9281 0.91722-4.4097 2.4694-5.2211 1.0583-0.59972 3.6336-0.635 42.827-0.635 41.557 0 41.698 0 42.651 0.74083 1.7286 1.27 2.2225 2.2931 2.4694 4.9742l0.24695 2.5753h43.921l39.899-50.271c21.943-27.622 39.899-50.341 39.899-50.447 0-0.10584-17.709-0.14112-39.37-0.10584l-39.405 0.10584-7.62 11.889c-4.5508 7.1261-7.8317 11.924-8.1492 11.889-0.28221 0-4.4097-5.3975-9.1722-11.959l-8.6431-11.959-48.683 0.14112-1.5875 0.84666c-2.152 1.1289-4.7978 3.7394-5.9267 5.8561-0.84667 1.6228-0.9525 2.1872-1.0583 6.7733l-0.14111 5.0447h-5.8914l-0.10584-5.2211c-0.10583-4.6567-0.17638-5.3622-0.9525-6.9497-1.1289-2.2225-3.2808-4.3744-5.5033-5.5033l-1.7639-0.84666-78.846-0.0353c-43.709-0.0353-79.551 0.0705-80.398 0.24694z" fill="#fffaff"/>
   <path d="m-439.5-152.51c-11.536 1.6228-21.237 10.301-24.306 21.802-0.81139 2.9986-1.0936 8.3256-0.59972 11.465 1.3053 8.2197 6.4206 16.193 13.053 20.285l2.293 1.4111-8.008 0.10583-8.0081 0.0706v29.669l77.082-0.21167 2.7164-0.91722c3.5631-1.2347 6.8439-3.1044 9.2075-5.2564l1.9403-1.7639h20.884v8.1139h26.317l0.635-1.9756c0.42334-1.3758 1.0936-2.4694 2.1167-3.4925 2.8575-2.8575-0.9525-2.6458 52.07-2.6458s49.212-0.21166 52.07 2.6458c1.023 1.023 1.6933 2.1167 2.1167 3.4925l0.635 1.9756 14.64-0.0706 14.605-0.10583 34.008-42.439 34.008-42.404-27.799 0.0353h-27.799l-9.525 14.781-9.525 14.817-1.9403-0.10583-1.905-0.0706-11.501-14.746-11.465-14.711-18.344 0.0706-18.344 0.10583-1.3406 0.84667c-0.74083 0.45861-1.7639 1.4817-2.293 2.2578-0.9525 1.4111-0.9525 1.517-1.0583 8.255l-0.14112 6.8086h-24.201l-0.14111-5.0447c-0.10583-4.9389-0.14111-5.0447-1.3053-7.2319-1.3406-2.4694-2.4342-3.5278-5.1153-4.9389l-1.7992-0.9525-71.438-0.0353c-39.299-0.0353-71.896 0.0353-72.496 0.10583zm57.856 9.2781c0.52917 0.49389 1.0936 1.1994 1.2347 1.5875 0.24695 0.52917 0.3175 0.24694 0.3175-0.98778l0.0353-1.658 40.393 0.0705 40.393 0.10584 1.1289 1.1642 1.1642 1.1289 0.21166 11.642h-33.902v56.797h-15.522v-56.797h-44.556c-42.686 0-44.591 0.0353-45.755 0.67027-2.0108 1.0583-3.2808 2.9281-3.422 5.0447-0.17638 2.2578 0.56445 3.81 2.5047 5.3975l1.3406 1.0583 39.617 0.35278 2.5753 0.9525c3.5631 1.3053 6.1031 2.8928 8.6783 5.4328 2.54 2.5753 4.1628 5.1153 5.4328 8.6784 0.81139 2.2578 0.91723 3.1045 0.91723 6.985 0 3.8806-0.10584 4.7272-0.91723 6.985-1.3053 3.5983-2.8928 6.1383-5.4328 8.6783-2.5753 2.54-5.1153 4.1628-8.6783 5.4328l-2.5753 0.9525-61.56 0.21167v-15.558h28.399c24.871 0 28.575-0.0706 29.739-0.52917 5.5386-2.3283 5.6797-9.7014 0.24695-12.206-1.3053-0.59972-2.6811-0.67028-19.579-0.67028-20.002 0-21.061-0.10583-25.118-2.1167-2.9633-1.4817-5.5739-3.5278-7.3025-5.7503-8.3608-10.866-4.9389-25.929 7.3378-31.997 4.1981-2.0814 3.9511-2.0814 34.149-2.0108l27.552 0.0706zm168.45 19.403c9.525 11.254 17.462 20.461 17.639 20.461 0.1764 0 7.4789-9.2075 16.228-20.461l15.875-20.461h23.636l-9.1369 12.241c-5.0447 6.7733-16.898 22.684-26.388 35.384l-17.251 23.107h-6.985l-24.624-31.926c-13.547-17.568-25.823-33.479-27.27-35.384l-2.6458-3.4219h23.636zm-23.989 17.992v7.7611h-68.086v-15.522h68.086z"/>
  </g>
  <path d="m28.543 127.66c-2.1455-0.78815-3.2999-2.5377-3.3931-5.1423-0.0446-1.2471-0.0159-1.3029 0.71308-1.3862 1.3239-0.1513 1.9374 0.14388 2.1118 1.0162 0.0884 0.44217 0.46943 1.1126 0.84665 1.4898 0.61416 0.61415 0.84063 0.67304 2.1659 0.56314 1.8576-0.15405 2.5159-0.81964 2.3973-2.4237-0.0952-1.2875-0.91379-1.9407-3.5187-2.8076-3.4114-1.1352-4.3655-2.3212-4.3637-5.424 2e-3 -3.2654 0.88193-5.1318 2.9006-6.1516 2.5651-1.2958 5.906-0.39075 6.99 1.8937 0.59689 1.2579 0.96902 3.5568 0.61151 3.7777-0.52281 0.32312-2.0988 0.36163-2.4621 0.0602-0.20297-0.16845-0.36904-0.51377-0.36904-0.76737 0-1.4691-2.1703-2.5163-3.64-1.7563-0.89754 0.46413-1.1225 0.89116-1.1225 2.1305 0 1.1545 0.4578 1.5122 3.5523 2.7762 1.4422 0.58904 2.882 1.3152 3.1998 1.6137 0.90392 0.84919 1.2735 2.3535 1.1295 4.5973-0.17049 2.6566-0.97451 4.2407-2.691 5.3019-1.4103 0.87191-3.6526 1.155-5.0583 0.6387zm25.929 0.17447c-0.14552-0.0482-0.58982-0.15933-0.98734-0.24692-1.7306-0.38134-3.5466-2.8624-4.1391-5.6547-0.41782-1.9692-0.36327-6.4878 0.10217-8.462 1.0484-4.4469 3.2537-6.6724 6.6118-6.6724 2.9088 0 4.7587 1.4392 5.6883 4.4257 0.59244 1.9032 0.38454 2.245-1.2989 2.1355-1.1064-0.072-1.253-0.16372-1.6658-1.0432-1.1918-2.5392-3.815-2.7953-5.3181-0.51919-1.0941 1.6568-1.3718 2.8792-1.3586 5.9814 0.0106 2.4961 0.10051 3.092 0.63159 4.186 0.73435 1.5127 1.6032 2.152 2.9245 2.152 1.2579 0 2.2446-0.66717 2.907-1.9657 0.97451-1.9102 0.74217-2.2694-1.5841-2.4488-0.91594-0.0706-0.9269-0.0861-1.0045-1.4178-0.10859-1.8626 0.12397-1.9971 3.2925-1.9046l2.6068 0.076v10.583l-0.99431 0.0822c-0.72 0.0596-1.0302-0.0317-1.1245-0.33073-0.42905-1.3612-0.36637-1.337-1.2631-0.48842-0.46829 0.44314-1.0896 0.92338-1.3806 1.0672-0.61454 0.30369-2.26 0.59294-2.6458 0.4651zm236.91-0.38426c-2.2307-0.42639-3.8925-2.1726-4.4267-4.6514-0.35126-1.6299-0.09-1.9483 1.4605-1.7802 0.97814 0.10608 1.1471 0.22477 1.3967 0.98114 0.57119 1.7306 2.1497 2.5546 3.8311 1.9997 1.6447-0.54279 2.2705-2.6609 1.1247-3.8067-0.33253-0.33251-1.4934-0.9399-2.5797-1.3498-3.2604-1.2301-3.8772-1.6236-4.6747-2.9821-0.64534-1.0993-0.73668-1.5231-0.72707-3.3739 0.0135-2.5779 0.65275-4.0107 2.2661-5.0784 0.8941-0.59171 1.382-0.71583 2.8614-0.7279 1.5345-0.0125 1.9323 0.0885 2.8495 0.72403 1.2578 0.87144 2.3873 2.8031 2.5076 4.2885l0.0858 1.0583-1.2383 0.0799c-1.2356 0.0797-1.2395 0.0773-1.7611-1.1018-0.59611-1.3476-1.1897-1.7562-2.5515-1.7562-1.276 0-2.2543 0.95803-2.2543 2.2076 0 1.308 0.62356 1.8654 3.3073 2.956 3.2676 1.3279 3.9727 1.8125 4.6383 3.1875 0.76314 1.5764 0.67797 4.9835-0.16488 6.5978-0.97798 1.8731-3.5841 2.9802-5.9507 2.5278zm-253.85-0.28789c-0.0911-0.14742-0.0981-2.2595-0.0155-4.6936s0.22345-6.778 0.31305-9.6534c0.10786-3.4613 0.26487-5.2926 0.46465-5.4194 0.36631-0.23255 7.8888-0.38361 9.1114-0.18297l0.87215 0.14313-0.1568 3.2787-7.1438 0.26458v3.9688l6.4823 0.1486v1.5637c0 0.89368-0.13047 1.6444-0.30448 1.7519-0.16746 0.10349-1.626 0.22334-3.2411 0.26631-1.6152 0.043-3.0083 0.0844-3.0959 0.092-0.31745 0.0277-0.5012 4.3265-0.20043 4.6889 0.21651 0.26088 1.2086 0.35203 3.8316 0.35203h3.5395v1.702c0 1.3971-0.0829 1.7243-0.46302 1.8265-0.9519 0.256-9.8286 0.16904-9.9936-0.0979zm229.66-0.0772c-1.9246-0.75311-3.0281-2.1225-3.5376-4.3901-0.37083-1.6504-0.19177-1.9147 1.2336-1.8206 1.1023 0.0728 1.2258 0.15284 1.5007 0.97304 0.73025 2.1788 3.381 2.9192 4.9246 1.3756 1.0218-1.0218 1.0386-2.1779 0.0458-3.1679-0.42439-0.42321-1.72-1.0832-3.1089-1.5836-3.7965-1.368-4.6258-2.501-4.6287-6.3237-2e-3 -2.1858 0.38956-3.3224 1.4873-4.3211 1.386-1.2609 3.9525-1.6796 5.7338-0.93531 1.6665 0.69631 3.5409 3.6516 3.3175 5.2307-0.0787 0.55651-0.2271 0.62951-1.2796 0.62951-1.1428 0-1.2109-0.0448-1.694-1.1135-0.87812-1.9423-2.8767-2.3739-4.4403-0.95886-0.58567 0.53003-0.63912 2.1246-0.0971 2.8984 0.22253 0.31771 1.3808 0.90378 2.7638 1.3985 2.743 0.98118 3.8864 1.6798 4.6822 2.8607 1.1977 1.7772 1.0042 5.7445-0.36422 7.4664-1.4796 1.8619-4.3414 2.6417-6.5388 1.7818zm-203.86-0.15269c0-0.13143 0.88561-3.3759 1.968-7.2099 1.0824-3.834 2.3133-8.2211 2.7353-9.749l0.76733-2.7781 1.6302-0.0788c1.9855-0.0959 1.8042-0.41568 3.0914 5.4522 0.52061 2.3733 1.4169 6.3508 1.9917 8.8388s1.0452 4.8087 1.0452 5.157c0 0.60352-0.0712 0.62952-1.5168 0.55389l-1.5168-0.0793-0.40712-1.8521-0.40713-1.8521h-5.2467l-0.23144 0.92604c-0.12729 0.50932-0.3478 1.3725-0.49003 1.9182l-0.25861 0.99219h-1.5773c-0.86751 0-1.5773-0.10754-1.5773-0.23897zm8.2925-7.6324c0.20505-0.33446-1.0331-6.2869-1.2977-6.2387-0.32354 0.0589-1.7783 5.5952-1.5954 6.0717 0.14985 0.3905 2.667 0.53578 2.8931 0.16698zm12.967 7.4679c-0.0851-0.2219-0.1014-3.8495-0.0361-8.0613 0.0786-5.0678 0.0264-7.7502-0.15437-7.9309-0.1502-0.15019-1.0827-0.27308-2.0723-0.27308h-1.7992v-3.4396l4.1672-0.0625c5.2156-0.0782 6.9713-0.0174 7.2392 0.2505 0.1158 0.1158 0.14041 0.89005 0.0547 1.7206l-0.15585 1.51-4.0292 0.1532-0.16257 3.175c-0.0894 1.7462-0.1787 5.3947-0.19843 8.1076-0.0396 5.4414 0.0242 5.2538-1.7856 5.2538-0.57384 0-0.97019-0.1498-1.0675-0.40346zm9.4813 0.18199c-0.45671-0.29875-0.14258-19.796 0.32174-19.97 0.15964-0.0596 0.82603-0.0355 1.4809 0.0534l1.1906 0.16163-0.10134 6.7469c-0.0557 3.7108-0.1748 8.1756-0.26458 9.9219l-0.16325 3.175-1.0583 0.069c-0.58209 0.038-1.2147-0.0332-1.4057-0.1582zm9.234-8e-3c-0.31466-0.21169-0.34562-1.4749-0.19569-7.984 0.12913-5.6059 0.0957-7.8319-0.12161-8.0937-0.20008-0.24109-0.9047-0.36115-2.1194-0.36115h-1.8197v-1.7198c0-0.94588 0.0893-1.7218 0.19844-1.7242 0.10914-2e-3 2.4299-0.0703 5.1572-0.15081 2.7273-0.0805 5.2033-0.0688 5.5022 0.0261 0.48289 0.15327 0.53468 0.35418 0.46518 1.8045l-0.0782 1.632-1.8521 0.0796c-1.0186 0.0438-1.9282 0.16286-2.0212 0.26459s-0.24736 3.7524-0.34302 8.1127c-0.0957 4.3603-0.21808 7.9719-0.27206 8.0259-0.24584 0.24584-2.1652 0.31373-2.5 0.0884zm85.832-0.24683c-1.8575-0.87327-3.4266-3.072-4.0711-5.7049-0.52989-2.1646-0.41079-7.1597 0.21903-9.1868 1.0682-3.438 3.3776-5.5359 6.0889-5.5311 1.8637 3e-3 3.9192 0.92509 4.8843 2.1903 2.844 3.7287 2.8378 12.783-0.0113 16.529-1.4232 1.8711-4.954 2.7172-7.1098 1.7037zm3.2262-3.2444c1.069-0.40389 2.1397-1.5123 2.492-2.5796 0.85767-2.5988 0.71109-6.841-0.30918-8.9486-1.3345-2.7568-4.4916-2.9331-5.822-0.32513-0.6849 1.3425-1.0254 4.4903-0.75464 6.9753 0.31914 2.9285 0.92768 4.0974 2.4929 4.7883 0.98178 0.43337 0.99027 0.43377 1.901 0.0897zm16.159 3.3445c-2.1355-0.76217-3.3169-2.04-4.1649-4.5048-1.5237-4.4287-1.0891-10.086 1.0317-13.43 1.3779-2.1727 4.3949-3.1251 7.2191-2.2789 1.4286 0.42802 3.2385 2.4806 3.8234 4.3361 0.24811 0.7871 0.37471 1.5075 0.28133 1.6009-0.0934 0.0934-0.65354 0.21079-1.2448 0.26092-1.1738 0.0995-1.6387-0.22355-2.4273-1.687-0.6585-1.222-1.9084-1.7809-3.1503-1.4088-1.2267 0.36751-2.495 1.772-2.947 3.2634-0.44147 1.4566-0.42459 6.1204 0.0269 7.4345 0.7605 2.2134 2.8844 3.66 4.4819 3.0526 1.0208-0.38811 1.641-1.0149 2.1923-2.2154 0.80739-1.7582 0.71267-1.9468-1.0237-2.0373l-1.5214-0.0793v-3.175l5.6044-0.1494 0.17639 5.0722c0.18833 5.4157 0.12018 5.7927-1.0471 5.7927-0.4706 0-0.72626-0.24111-1.0323-0.97354l-0.40677-0.97354-0.98584 0.95779c-1.5699 1.5252-2.9249 1.8419-4.886 1.142zm94.407 0.0604c-0.0594-0.18993-0.18301-3.7929-0.27472-8.0066-0.1012-4.6512-0.27456-7.7912-0.44124-7.9921-0.15526-0.18707-1.0407-0.36459-2.0377-0.40853l-1.7631-0.0777v-3.175l4.8948-0.0752c2.6921-0.0414 5.1512-0.0122 5.4645 0.0648 0.47379 0.1164 0.58809 0.37404 0.679 1.5304 0.14909 1.8964-0.093 2.1447-1.8995 1.9483-0.80621-0.0876-1.6222-0.0587-1.8134 0.0643-0.2776 0.17862-0.33089 1.8434-0.26459 8.2674l0.083 8.0437-1.2595 0.0807c-0.86206 0.0553-1.2936-0.0282-1.3675-0.26458zm8.7274 0.0758c-0.0817-0.13217-0.20889-2.6027-0.28271-5.4901-0.0738-2.8874-0.19082-7.2467-0.26006-9.6874l-0.12589-4.4376 9.9141 0.144v3.175l-6.8792 0.26459-0.0773 1.7443c-0.0542 1.2221 0.0299 1.8332 0.2807 2.0414 0.20531 0.1704 1.6486 0.32919 3.3846 0.37237l3.0266 0.0753v3.175l-6.4823 0.1486 4e-3 2.307c3e-3 1.2688 0.0963 2.4522 0.20907 2.6296 0.14057 0.22125 1.3243 0.34599 3.7663 0.39688l3.5613 0.0742 0.1576 3.3072h-5.0241c-2.7632 0-5.0909-0.10814-5.1726-0.24031zm11.395-1.9425c-0.0808-1.2006-0.21344-5.6702-0.29469-9.9327l-0.14775-7.7499 4.3495 0.154 0.6064 3.4396c0.33351 1.8918 0.86315 4.9486 1.177 6.7929 0.56193 3.3024 0.83209 4.2024 1.1624 3.8721 0.0922-0.0922 0.6055-3.3034 1.1407-7.1361l0.97303-6.9685h3.9652l0.16291 5.1594c0.0896 2.8376 0.20865 7.243 0.26458 9.7896l0.10168 4.6302-1.1098 0.0806c-1.0733 0.078-1.1142 0.0519-1.2432-0.79375-0.0734-0.48092-0.20458-3.7275-0.29152-7.2146-0.0869-3.4871-0.21206-6.3942-0.2781-6.4602-0.27242-0.27242-0.45122 0.30174-0.66466 2.1342-0.52165 4.4787-1.5698 11.904-1.7131 12.136-0.20103 0.32526-2.4266 0.32644-2.6276 1e-3 -0.0847-0.137-0.6227-2.9052-1.1956-6.1516-1.3376-7.5792-1.3469-7.6223-1.6494-7.6223-0.16304 0-0.18574 2.5419-0.0626 7.0115l0.19312 7.0115h-2.6715zm-213.95 1.554c0-0.364 1.0269-4.3466 2.3962-9.293 0.32227-1.1642 1.0381-3.8907 1.5908-6.0589 0.55265-2.1682 1.1616-4.0416 1.3532-4.1631 0.53222-0.33748 2.4446-0.27054 2.9065 0.10174 0.22567 0.1819 0.5466 0.86651 0.71316 1.5214 0.37022 1.4555 4.0048 17.905 4.0048 18.125 0 0.0866-0.68021 0.1217-1.5116 0.0781l-1.5116-0.0793-0.29442-1.475c-0.49772-2.4936-0.32215-2.3614-3.1376-2.3614h-2.5031l-0.39344 1.3891c-0.21639 0.76398-0.43435 1.6272-0.48436 1.9182-0.0766 0.4456-0.33079 0.5417-1.6097 0.60852-1.1988 0.0626-1.5188-3e-3 -1.5188-0.31137zm8.0478-7.5375c0.16399-0.26535-0.98132-6.022-1.2519-6.2926-0.2958-0.2958-0.38948-0.0647-1.0924 2.6946-0.97704 3.8356-0.97878 3.8269 0.76322 3.8269 0.79178 0 1.5033-0.10303 1.5811-0.22894zm6.2082 7.7034c-0.0174-0.10915-5e-3 -4.5442 0.0275-9.8557 0.0422-6.9119 0.14523-9.7126 0.36227-9.8517 0.53135-0.34061 2.2354-0.21689 2.6443 0.19197 0.21695 0.21695 0.53767 0.84203 0.71271 1.3891 0.68751 2.1486 4.0349 10.277 4.3827 10.642 0.31728 0.33333 0.37082 0.14863 0.38346-1.3229 0.0315-3.668 0.27244-10.458 0.38222-10.772 0.12803-0.36615 1.6613-0.44371 2.1861-0.11058 0.26123 0.16582 0.3189 2.3422 0.26459 9.984l-0.0695 9.7719h-3.1109l-1.048-2.6458c-0.57637-1.4552-1.6725-4.3062-2.4358-6.3355-0.76335-2.0293-1.5266-3.7359-1.6961-3.7924-0.22594-0.0753-0.32043 1.1915-0.35413 4.748-0.0434 4.5754-0.0914 6.6259-0.18016 7.695-0.0305 0.36668-0.2862 0.46302-1.2291 0.46302-0.65484 0-1.2048-0.0893-1.2222-0.19843zm21.083-0.39688c-0.0689-0.32742-0.36168-1.6073-0.65054-2.8443s-0.96058-4.154-1.4927-6.4823-1.253-5.4782-1.6019-6.9998-0.54235-2.8585-0.42984-2.971c0.37477-0.37477 2.9445 0.0839 3.0705 0.54804 0.0637 0.23481 0.60909 2.9868 1.2119 6.1155s1.1511 5.9564 1.2184 6.2838c0.1472 0.7158 0.54783 0.77812 0.7574 0.11782 0.0833-0.26263 0.73086-3.2524 1.4389-6.644 0.78023-3.7373 1.4311-6.2576 1.6522-6.3976 0.20067-0.1271 0.87087-0.23291 1.4893-0.23514 0.86115-3e-3 1.1245 0.0962 1.1245 0.42394 0 0.39368-0.96535 4.4459-3.3332 13.992-0.50535 2.0373-1.0383 4.1506-1.1842 4.6964l-0.26543 0.99218h-1.44c-1.2798 0-1.4539-0.0662-1.5653-0.59531zm9.5679 0.4348c-0.18659-0.18659 0.0192-19.007 0.21445-19.617 0.11464-0.35821 2.1858-0.45897 2.636-0.12824 0.17229 0.12658 0.21844 3.6091 0.13229 9.984l-0.13229 9.7896-1.3331 0.078c-0.73319 0.0429-1.416-5e-3 -1.5174-0.10625zm5.1624-9.8275 0.0693-9.988 3.2486-0.0743c4.7333-0.10833 5.9624 0.35449 7.3841 2.7805 2.2372 3.8175 1.6849 12.108-1.0372 15.569-1.0532 1.3389-2.3389 1.6891-6.2252 1.6955l-3.5089 6e-3zm7.3684 5.5506c0.92998-1.0408 1.2774-2.2423 1.4783-5.1118 0.35761-5.1089-1.112-7.332-4.6763-7.0736l-1.1906 0.0863-0.071 6.3314c-0.0548 4.8824 6e-3 6.3837 0.26458 6.56 0.1846 0.12577 1.0379 0.18481 1.8963 0.13121 1.3522-0.0844 1.6593-0.2078 2.2988-0.92351zm6.4164 4.1034c-0.18164-0.2939-0.32377-18.94-0.1482-19.444 0.087-0.24929 1.382-0.33073 5.2591-0.33073h5.1437l-0.1576 3.3072-3.4396 0.0711c-2.8516 0.059-3.4961 0.14677-3.7703 0.51359-0.44162 0.59084-0.4297 3.1048 0.0165 3.4751 0.19494 0.16179 1.7324 0.32103 3.5057 0.36313l3.1585 0.075v3.175l-3.2362 0.0743c-2.7437 0.063-3.2724 0.14347-3.4743 0.52917-0.35256 0.67347-0.35853 4.0355-8e-3 4.458 0.22824 0.27502 1.1833 0.36258 3.9548 0.36258 4.1582 0 4.1464-7e-3 3.8086 2.2455l-0.17906 1.1941-2.8142 0.0112c-1.5478 6e-3 -3.8597 0.0483-5.1376 0.0937-1.312 0.0466-2.3924-0.0292-2.482-0.17423zm66.388 0.14261c-0.62651-0.0778-0.89033-0.26327-0.97462-0.68526-0.0636-0.31824-0.54971-3.0789-1.0803-6.1349-1.154-6.6466-1.1763-6.7469-1.4961-6.7469-0.15321 0-0.2389 2.5109-0.21898 6.4162 0.018 3.5289 0.0251 6.565 0.0158 6.7469-0.019 0.3715-2.2774 0.47559-2.5001 0.11523-0.0733-0.11853-0.15422-4.5536-0.17993-9.8557l-0.0468-9.6402 2.0187-0.0773c1.8964-0.0726 2.0324-0.0406 2.2439 0.52917 0.12387 0.33357 0.73087 3.4044 1.3489 6.8242s1.187 6.3223 1.2643 6.4501c0.31403 0.51905 0.58156-0.7856 1.404-6.847 0.4739-3.4925 0.97691-6.4988 1.1178-6.6807 0.27915-0.36039 3.7746-0.47639 3.9866-0.13229 0.0673 0.10914 0.21006 4.574 0.31736 9.9219l0.19507 9.7234h-2.6393l-0.17152-2.9766c-0.0943-1.6371-0.17205-4.7923-0.17271-7.0115-5.3e-4 -2.2192-0.10283-4.0349-0.22704-4.0349-0.2392 0-0.72505 2.8086-1.6476 9.525-0.40054 2.9158-0.68463 4.1966-0.983 4.4318-0.23081 0.1819-0.4862 0.31168-0.56752 0.28839-0.0813-0.0233-0.53444-0.0903-1.0069-0.14899zm13.03-0.0566-3.9688-0.14894-0.13229-5.0271c-0.0728-2.7649-0.13229-7.1702-0.13229-9.7896v-4.7625l4.7279-0.0724c3.2628-0.0499 4.8411 0.0216 5.0932 0.23083 0.22756 0.18887 0.36535 0.8379 0.36535 1.721 0 1.3113-0.0524 1.4309-0.69781 1.5929-0.3838 0.0963-1.9154 0.10618-3.4035 0.0219-1.8564-0.10512-2.8001-0.0589-3.0064 0.1474-0.31616 0.31616-0.41467 2.7647-0.14003 3.4804 0.11521 0.30022 0.51525 0.41851 1.4153 0.41851 0.69008 0 2.1708 0.0774 3.2906 0.1721l2.0359 0.17209-0.1554 3.2276-2.7781 8e-3c-4.1292 0.0119-3.7361-0.2652-3.648 2.5717l0.0761 2.4474 7.5643 0.45855-0.156 3.2456-1.1906 0.0166c-0.65485 9e-3 -2.9766-0.0504-5.1594-0.13229zm27.257-0.0828c-0.0608-0.1819-0.15711-1.9381-0.2139-3.9026-0.10221-3.5351-0.11566-3.6018-1.3068-6.4823-4.0551-9.8063-3.9495-9.2271-1.6549-9.0778l1.2601 0.082 1.2837 3.5564c1.3393 3.7105 1.64 4.2673 2.0716 3.8358 0.13984-0.13983 0.71347-1.8603 1.2747-3.8232l1.0205-3.569 1.6701-0.0797c1.5046-0.0718 1.6558-0.0324 1.526 0.39688-0.0792 0.2621-1.0472 3.0257-2.1511 6.1413l-2.007 5.6648v7.5882h-1.3312c-0.82959 0-1.3729-0.12463-1.4418-0.33073zm-61.254-0.51596c1e-3 -0.33468 0.46175-2.3944 1.0235-4.5773 0.56174-2.1828 1.5577-6.0523 2.2132-8.599 0.65549-2.5466 1.2687-4.9576 1.3628-5.3578 0.16469-0.70076 0.23388-0.7276 1.8756-0.7276h1.7046l0.29054 1.1245c0.15979 0.61846 0.63149 2.3746 1.0482 3.9026 0.41672 1.528 1.1382 4.2069 1.6033 5.9531 0.46509 1.7462 1.1291 4.2104 1.4755 5.4758 0.93793 3.4257 0.93673 3.4302-0.89142 3.3348l-1.5214-0.0794-0.4418-1.8234c-0.24299-1.0028-0.60018-1.9251-0.79375-2.0495-0.39823-0.25589-4.2487-0.25447-4.6582 2e-3 -0.14678 0.0918-0.48874 1.0004-0.75991 2.0191l-0.49303 1.8521-1.5199 0.0793c-1.4331 0.0748-1.5198 0.0446-1.5178-0.52917zm8.1874-7.5538c-0.0195-0.72173-1.2119-5.8766-1.4037-6.0685-0.31441-0.31441-0.50283 0.14645-1.1254 2.7527-0.92301 3.8638-0.94446 3.7788 0.95415 3.7788 1.3403 0 1.5856-0.0721 1.575-0.46302z" fill="#fff" stroke-width=".26458"/>
 </g>
 <g transform="translate(0 -2.6458)" fill="#fff">
  <g transform="matrix(.035278 0 0 -.035278 -9.3888 144.5)" fill="#fff">
   <path d="m9110 1500c0-29 1-30 50-30h50v-300h80v300h55c54 0 55 0 55 30v30h-290z"/>
   <path d="m9440 1350v-180h70l1 118 1 117 30-118 31-118 40 3 41 3 54 200 1-102 1-103h80v360h-117l-30-112-29-111-29 111-30 112h-115z"/>
  </g>
 </g>
</svg>
