<?xml version="1.0" encoding="UTF-8"?>
<!-- Created with Inkscape (http://www.inkscape.org/) -->
<svg width="78.608mm" height="20.426mm" version="1.1" viewBox="0 0 78.608 20.426" xmlns="http://www.w3.org/2000/svg" xmlns:cc="http://creativecommons.org/ns#" xmlns:dc="http://purl.org/dc/elements/1.1/" xmlns:rdf="http://www.w3.org/1999/02/22-rdf-syntax-ns#">
 <metadata>
  <rdf:RDF>
   <cc:Work rdf:about="">
    <dc:format>image/svg+xml</dc:format>
    <dc:type rdf:resource="http://purl.org/dc/dcmitype/StillImage"/>
    <dc:title/>
   </cc:Work>
  </rdf:RDF>
 </metadata>
 <g transform="translate(585.95 132.41)">
  <g fill="#fff">
   <g transform="matrix(.36345 0 0 .36345 -677.11 -318.61)" stroke-width="7.3311">
    <g transform="translate(1.422)" fill="#fff">
     <g transform="matrix(.5432 0 0 .5432 100.37 226.11)" fill="#fff" stroke-width="2.3663px" aria-label="VECTOR GAMES">
      <path d="m414.32 611.93v18.407l-16.71-0.0514q-4.5245 0-8.175-1.1311-3.6505-1.1826-6.2212-3.3934-2.5194-2.2623-3.9076-5.5528-1.3368-3.2906-1.3368-7.558 0-8.3807 4.9873-12.905 4.9873-4.576 14.088-4.576h10.9v7.8665h-10.643q-2.3137 0.20566-3.6505 0.82264-1.3368 0.61699-2.4165 2.0566-1.5424 2.1594-1.5424 6.6326 0 4.3189 1.5939 6.941 1.6453 2.6222 5.6042 2.9307h7.6609v-3.5991h-5.3986v-6.8896z"/>
      <path d="m444.87 629.77-2.108-6.067h-12.288l-1.7481 6.067h-12.391l9.2547-33.883h22.263l9.5118 33.883zm-12.391-13.419h8.8434l-4.7302-13.368z"/>
      <path d="m459.41 629.77v-33.883h11.877l9.8717 17.481 8.792-17.481h11.877v33.883h-11.877v-16.042l-8.792 16.042-9.8717-16.042v16.042z"/>
      <path d="m503.9 630.08v-34.243h31.26v8.3293h-19.538v4.9873h18.098v7.5066h-18.098v4.9873h24.114v8.4321z"/>
      <path d="m531.15 630.08v-8.175h17.121q1.0283-0.30849 1.491-0.56556 0.46274-0.3085 0-1.5425-0.41132-1.2854-1.9538-4.1132-1.5425-2.8278-4.576-8.2264-1.1311-2.3137-1.1826-4.4217-0.0514-2.1594 0.92547-3.7533 0.97689-1.5939 2.9821-2.5193 2.0052-0.97689 5.0901-0.97689l18.972-0.0514v8.3292h-12.597q-1.0797-0.0514-1.2854 0.41133-0.15425 0.41132 0.66839 1.9024 0.82265 1.491 2.6736 4.3703 1.9024 2.8278 4.9873 7.558 1.0283 1.3368 1.4396 3.342 0.46274 2.0052-0.20566 3.9076-0.61698 1.851-2.6222 3.1877-2.0052 1.3368-5.8613 1.3368z"/>
     </g>
    </g>
   </g>
   <g transform="matrix(3.0597 0 0 3.0597 1045 186.46)">
    <path d="m-529.85-104.13-0.89682 2.9607-0.90832-2.9607h-1.3855l1.0348 3.7885h2.4893l1.0635-3.7885z"/>
    <path d="m-528.22-100.32v-3.8288h3.4953v0.93132h-2.1846v0.55764h2.0236v0.83933h-2.0236v0.55764h2.6962v0.94282z"/>
    <path d="m-520.64-101.17v0.87958h-1.1555q-0.50591 0-0.91408-0.12647-0.40816-0.13223-0.69561-0.37943-0.28169-0.25295-0.43691-0.62088-0.14947-0.36793-0.14947-0.84508 0-0.93707 0.55764-1.443 0.55764-0.51165 1.5752-0.51165h1.2188v0.87958h-1.19q-0.2587 0.023-0.40817 0.092t-0.27019 0.22995q-0.17247 0.24146-0.17247 0.74161 0 0.48291 0.17821 0.7761 0.18397 0.29319 0.62663 0.32768z"/>
    <path d="m-520.41-103.25v-0.91407h3.9782v0.91407h-1.351v2.8917h-1.305v-2.8917z"/>
    <path d="m-516.31-102.25q0-0.92556 0.57489-1.443 0.57489-0.52315 1.6039-0.52315 1.052 0 1.6212 0.51165 0.56914 0.5059 0.56914 1.42-6e-3 0.97156-0.55189 1.4832-0.5404 0.5059-1.5867 0.5059-0.5059 0-0.91982-0.12647-0.41392-0.13223-0.70711-0.37943-0.28745-0.2472-0.44842-0.60938-0.15522-0.36793-0.15522-0.83934zm1.305 6e-3q0 0.57489 0.2357 0.82784 0.24146 0.2472 0.64388 0.2472 0.42541 0 0.65537-0.2472 0.22995-0.2472 0.22995-0.87958 0-0.53464-0.24145-0.78185-0.24145-0.2472-0.65537-0.2472-0.39092 0-0.63238 0.25295-0.2357 0.25295-0.2357 0.82784z"/>
    <path d="m-510.29-100.36h-1.4085v-3.7943h2.1731q0.32194 0 0.63238 0.069 0.31618 0.0632 0.56338 0.22421 0.24721 0.15522 0.39668 0.41392 0.15522 0.2587 0.14947 0.63812-6e-3 0.31044-0.0632 0.5174-0.0517 0.20121-0.13797 0.33919-0.0805 0.13222-0.18397 0.2127-0.0977 0.0805-0.18396 0.13798l-0.16097 0.0517q0.0115 0.0402 0.0115 0.0977 0 0.0517 0.0977 0.0977t0.33918 0.0805q0.24146 0.0288 0.72436 0.0288v0.90257h-1.19q-0.31618-0.069-0.56339-0.19546-0.24145-0.13222-0.44841-0.29894-0.20696-0.17247-0.39092-0.36793-0.17822-0.19546-0.35643-0.38517zm0.0115-2.794v0.7531h0.52314q0.52315 0 0.72436-0.0862 0.20121-0.092 0.20121-0.32194 0-0.0747-0.0402-0.13797-0.0402-0.0632-0.14947-0.10923-0.10348-0.046-0.28744-0.069-0.17822-0.0288-0.45991-0.0288z"/>
   </g>
  </g>
 </g>
</svg>
